<?xml version="1.0" encoding="utf-8"?>
<svg version="1.1" id="Layer_1" xmlns="http://www.w3.org/2000/svg" xmlns:xlink="http://www.w3.org/1999/xlink" x="0px" y="0px"
	 viewBox="0 0 400 400" enable-background="new 0 0 400 400" xml:space="preserve">
<g>
	<path fill="#E2DCC8" d="M239.9,93.7c0-20.8-5.3-36.8-15.8-47.9c-5.3-5.6-11.5-9.5-18.5-11.9c-7-2.3-16.3-3.5-27.9-3.5H57.5v5.6
		c3.1,1.2,5.3,2.7,6.5,4.5c1.2,1.9,1.8,4.6,1.8,8.2v201.7c0,3.6-0.6,6.3-1.8,8.2c-1.2,1.9-3.4,3.4-6.5,4.5v5.6h81.1l24-39.3h-58v-65
		h65.9c12.3,0,21.1,2.3,26.4,6.8c0.3,0.2,0.5,0.5,0.8,0.7l41.6-68C239.7,100.9,239.9,97.4,239.9,93.7z M193,119.2
		c-3.8,4.1-10.5,6.1-20.2,6.1h-63.6V69.8h63.6c9.6,0,16.5,2.1,20.6,6.4c4.1,4.3,6.1,11.4,6.1,21.4
		C199.4,107.3,197.3,114.6,193,119.2z"/>
	<g>
		<path fill="#E2DCC8" d="M199.4,274.7v78.6c0,3.5,0.7,6.2,2,8.1c1.4,1.9,3.7,3.4,6.9,4.5v5.6h-59.7v-5.6c3.4-1.2,5.7-2.7,7-4.5
			c1.3-1.9,2-4.5,2-8V151.4c0-3.6-0.7-6.3-2-8.2c-1.3-1.9-3.6-3.4-7-4.5v-5.6h119.4c13.9,0,25,1.2,33.2,3.5
			c8.2,2.3,15.4,6.3,21.7,12.1c6.4,5.9,11.5,13.7,15.1,23.4c3.6,10,5.5,20.6,5.5,31.8c0,16.1-3.5,30.2-10.4,42.3
			c-6,10.4-13.9,17.7-23.8,22.1c-9.9,4.4-23.6,6.5-41.3,6.5H199.4z M199.4,235.5h63.8c12.7,0,21.6-1.7,26.8-5.1
			c3.3-2.2,5.9-5.7,7.9-10.6c2-4.8,3-10.2,3-16c0-5.7-1-11-3-15.8c-2-4.8-4.6-8.4-7.9-10.6c-5-3.4-14-5.1-26.8-5.1h-63.8V235.5z"/>
	</g>
</g>
</svg>
