<?xml version="1.0" encoding="utf-8"?>
<svg version="1.1" id="Layer_1" xmlns="http://www.w3.org/2000/svg" xmlns:xlink="http://www.w3.org/1999/xlink" x="0px" y="0px"
	 viewBox="0 0 400 93" enable-background="new 0 0 400 93" xml:space="preserve">
<path fill="#E2DCC8" d="M380.9,29.8c-7-8.2-19.5-10.5-28.7-4.4c-8.4,5.6-7.7,16.3-1.1,23.1c1.8,1.9,5.1-0.5,3.3-2.6
	c-12-13.9,9.1-24.8,20.8-16.1c7.2,5.3,9.9,15.6,5.9,23.7c-3.6,7.3-12,10.1-19.4,11.7c-25.1,5.2-48.7-2.4-71.4-12.3
	c-6.8-3-13.7-6.2-20.7-9.5c10.7-3.4,21.2-6.8,31.5-7.8c1.5-0.2,1.1-2.4-0.4-2.3c-12.8,0.7-24.8,4.1-37,7.5
	c-11.4-5.1-23.1-9.8-35.1-12.1c-7.6-1.5-16.8-0.6-21.9,6c-5.8,7.6,2.2,13.7,9.2,15.6c15.1,4.1,30.6,0.4,46-4.4
	c6.4,2.8,12.7,5.7,19,8.5c21.3,9.5,44.1,17.6,67.8,16.7c11-0.4,25.5-2.2,32.7-11.7C388.3,50.6,388.1,38.1,380.9,29.8z M236.2,46
	c-14.1,1.3-18.7,0-21.8-2.8c-0.8-0.7-2.7-2.5-2.5-4.6c0.4-3.3,6-5.7,10.5-5.9c1.5-0.1,2.7,0.1,5.7,0.7c6,1.2,11.9,3.5,17.6,5.7
	c3.3,1.3,6.5,2.6,9.8,4C247.8,44.7,241.2,45.5,236.2,46z"/>
<path fill="#E2DCC8" d="M18.4,59.3C25.6,68.8,40,70.6,51.1,71c23.7,1,46.5-7.1,67.8-16.7c6.3-2.8,12.7-5.7,19-8.5
	c15.4,4.8,30.9,8.5,46,4.4c7-1.9,15-8.1,9.2-15.6c-5.1-6.6-14.2-7.5-21.9-6c-12,2.4-23.7,7-35.1,12.1c-12.2-3.4-24.2-6.8-37-7.5
	c-1.5-0.1-1.9,2.2-0.4,2.3c10.3,1,20.9,4.4,31.5,7.8c-7,3.2-13.8,6.5-20.7,9.5C87,62.7,63.4,70.3,38.3,65.2
	c-7.4-1.5-15.8-4.4-19.4-11.7c-4.1-8.1-1.3-18.4,5.9-23.7c11.8-8.7,32.8,2.2,20.8,16.1c-1.8,2.1,1.4,4.5,3.3,2.6
	c6.6-6.8,7.3-17.5-1.1-23.1c-9.2-6.1-21.7-3.8-28.7,4.4C11.9,38.1,11.7,50.6,18.4,59.3z M144.5,43c3.2-1.4,6.5-2.7,9.8-4
	c5.7-2.2,11.6-4.5,17.6-5.7c3-0.6,4.2-0.8,5.7-0.7c4.5,0.3,10.1,2.6,10.5,5.9c0.2,2.1-1.7,3.9-2.5,4.6c-3,2.8-7.7,4.1-21.8,2.8
	C158.8,45.5,152.2,44.7,144.5,43z"/>
</svg>
