<?xml version="1.0" encoding="utf-8"?>
<svg version="1.1" id="Layer_1" xmlns="http://www.w3.org/2000/svg" xmlns:xlink="http://www.w3.org/1999/xlink" x="0px" y="0px"
	 viewBox="0 0 400 93" enable-background="new 0 0 400 93" xml:space="preserve">
<path fill="#E2DCC8" d="M19.1,63.2c7,8.2,19.5,10.5,28.7,4.4c8.4-5.6,7.7-16.3,1.1-23.1c-1.8-1.9-5.1,0.5-3.3,2.6
	c12,13.9-9.1,24.8-20.8,16.1c-7.2-5.3-9.9-15.6-5.9-23.7c3.6-7.3,12-10.1,19.4-11.7c25.1-5.2,48.7,2.4,71.4,12.3
	c6.8,3,13.7,6.2,20.7,9.5c-10.7,3.4-21.2,6.8-31.5,7.8c-1.5,0.2-1.1,2.4,0.4,2.3c12.8-0.7,24.8-4.1,37-7.5
	c11.4,5.1,23.1,9.8,35.1,12.1c7.6,1.5,16.8,0.6,21.9-6c5.8-7.6-2.2-13.7-9.2-15.6c-15.1-4.1-30.6-0.4-46,4.4
	c-6.4-2.8-12.7-5.7-19-8.5C97.6,29.1,74.8,21,51.1,22c-11,0.4-25.5,2.2-32.7,11.7C11.7,42.4,11.9,54.9,19.1,63.2z M163.8,47
	c14.1-1.3,18.7,0,21.8,2.8c0.8,0.7,2.7,2.5,2.5,4.6c-0.4,3.3-6,5.7-10.5,5.9c-1.5,0.1-2.7-0.1-5.7-0.7c-6-1.2-11.9-3.5-17.6-5.7
	c-3.3-1.3-6.5-2.6-9.8-4C152.2,48.3,158.8,47.5,163.8,47z"/>
<path fill="#E2DCC8" d="M381.6,33.7c-7.3-9.5-21.7-11.3-32.7-11.7c-23.7-1-46.5,7.1-67.8,16.7c-6.3,2.8-12.7,5.7-19,8.5
	c-15.4-4.8-30.9-8.5-46-4.4c-7,1.9-15,8.1-9.2,15.6c5.1,6.6,14.2,7.5,21.9,6c12-2.4,23.7-7,35.1-12.1c12.2,3.4,24.2,6.8,37,7.5
	c1.5,0.1,1.9-2.2,0.4-2.3c-10.3-1-20.9-4.4-31.5-7.8c7-3.2,13.8-6.5,20.7-9.5c22.7-9.8,46.3-17.4,71.4-12.3
	c7.4,1.5,15.8,4.4,19.4,11.7c4.1,8.1,1.3,18.4-5.9,23.7c-11.8,8.7-32.8-2.2-20.8-16.1c1.8-2.1-1.4-4.5-3.3-2.6
	c-6.6,6.8-7.3,17.5,1.1,23.1c9.2,6.1,21.7,3.8,28.7-4.4C388.1,54.9,388.3,42.4,381.6,33.7z M255.5,50c-3.2,1.4-6.5,2.7-9.8,4
	c-5.7,2.2-11.6,4.5-17.6,5.7c-3,0.6-4.2,0.8-5.7,0.7c-4.5-0.3-10.1-2.6-10.5-5.9c-0.2-2.1,1.7-3.9,2.5-4.6c3-2.8,7.7-4.1,21.8-2.8
	C241.2,47.5,247.8,48.3,255.5,50z"/>
</svg>
