<?xml version="1.0" encoding="utf-8"?>
<svg version="1.1" id="Layer_1" xmlns="http://www.w3.org/2000/svg" xmlns:xlink="http://www.w3.org/1999/xlink" x="0px" y="0px"
	 viewBox="0 0 173.1 385.8" enable-background="new 0 0 173.1 385.8" xml:space="preserve">
<path fill="#FFFFFF" d="M69.8,256.9c-1.2-3.1-3.7-12.7-7.6-28.6C49,174.9,42.4,134.1,42.4,106.1c0-25.8,3.6-44.1,10.8-54.9
	C60.4,40.3,72.4,34.9,89,34.9c27.8,0,41.7,24.9,41.7,74.6c0,14.3-6.9,53.9-20.6,118.8c-3.6,16.7-6,26.7-7.4,30.2
	c-3.7,9.2-9.5,13.8-17.2,13.8C79.1,272.3,73.9,267.2,69.8,256.9z"/>
<circle fill="#FFFFFF" cx="86.5" cy="320.2" r="30.7"/>
</svg>
