<?xml version="1.0" encoding="utf-8"?>
<svg version="1.1" id="Layer_1" xmlns="http://www.w3.org/2000/svg" xmlns:xlink="http://www.w3.org/1999/xlink" x="0px" y="0px"
	 viewBox="0 0 400 400" enable-background="new 0 0 400 400" xml:space="preserve">
<g>
	<path fill="#E2DCC8" stroke="#E2DCC8" stroke-miterlimit="10" d="M86.2,273.1H53.3c-7.2,0-13-5.8-13-13V116.9c0-7.2,5.8-13,13-13
		h32.9c7.2,0,13,5.8,13,13v143.2C99.2,267.3,93.4,273.1,86.2,273.1z"/>
	<path fill="#E2DCC8" stroke="#E2DCC8" stroke-miterlimit="10" d="M178.8,189V86.1c0-7.2-5.8-13-13-13H133c-7.2,0-13,5.8-13,13v174
		c0,7.2,5.8,13,13,13l23.5,0c-3.7-10.1-4.5-27.6-2.8-38C156.9,215.2,165.2,199.7,178.8,189z"/>
	<path fill="#E2DCC8" stroke="#E2DCC8" stroke-miterlimit="10" d="M258.4,169V54c0-7.1-5.8-12.8-13-12.8h-32.9
		c-7.2,0-13,5.8-13,12.8v120c7.6-4.2,21.6-8.5,33.9-8.5C242.2,165.5,249.5,166.7,258.4,169z"/>
	<path fill="#E2DCC8" d="M199.6,236v26.7c0,5.8,5.8,10.4,13,10.4h32.9c7.2,0,13-4.7,13-10.4v-45c-6.9-4.2-13.8-7.3-22.9-7.3
		c-8.1,0-19,3.8-25,8.8C204.8,224.1,200.6,231.6,199.6,236z"/>
	<g>
		<circle fill="none" cx="235.6" cy="248.7" r="47.1"/>
		<path fill="#F1F1F1" d="M356.3,349.8l-60.4-60.4c8.1-11.8,12.8-26,12.8-41.3c0-40.4-32.8-73.2-73.2-73.2s-73.2,32.8-73.2,73.2
			c0,40.4,32.8,73.2,73.2,73.2c13.7,0,26.5-3.8,37.5-10.3l61.1,61.1c4.4,4.4,11.6,4.4,16,0l6.2-6.2
			C360.8,361.4,360.8,354.2,356.3,349.8z M188.5,248.7c0-26,21.1-47.1,47.1-47.1s47.1,21.1,47.1,47.1s-21.1,47.1-47.1,47.1
			S188.5,274.7,188.5,248.7z"/>
	</g>
</g>
</svg>
