<?xml version="1.0" encoding="utf-8"?>
<svg version="1.1" id="Layer_1" xmlns="http://www.w3.org/2000/svg" xmlns:xlink="http://www.w3.org/1999/xlink" x="0px" y="0px"
	 viewBox="0 0 400 400" enable-background="new 0 0 400 400" xml:space="preserve">
<g>
	<path fill="#E2DCC8" d="M349.6,129.8c0-2.1-2.3-3.4-4.2-2.4l-137.7,80.4l-0.4,0.3l0.8,159.2c0,2.1,2.3,3.4,4.1,2.4l137.9-80.3v0
		L349.6,129.8z"/>
	<polygon fill="#E2DCC8" points="201.1,202.2 201.5,201.9 201.1,201.6 	"/>
	<path fill="#E2DCC8" d="M339,113.4L200.8,33.6l0,0L62.6,113.4c-1.8,1.1-1.8,3.7,0,4.8l138.2,79.6l0.4,0.3L339,118.2
		C340.9,117.2,340.9,114.5,339,113.4z"/>
	<path fill="#E2DCC8" d="M195.7,207.9l0-0.5L57,129.1c-1.8-1-4.1,0.3-4.1,2.4l1.3,159.6h0l138.9,78.7c1.8,1,4.1-0.3,4.1-2.4
		L195.7,207.9z"/>
</g>
</svg>
