<?xml version="1.0" encoding="utf-8"?>
<svg version="1.1" id="Layer_1" xmlns="http://www.w3.org/2000/svg" xmlns:xlink="http://www.w3.org/1999/xlink" x="0px" y="0px"
	 viewBox="0 0 400 400" style="enable-background:new 0 0 400 400;" xml:space="preserve">
<style type="text/css">
	.st0{fill:#E2DCC8;stroke:#E2DCC8;stroke-miterlimit:10;}
	.st1{fill:#FFFFFF;stroke:#E2DCC8;stroke-width:3;stroke-linecap:round;stroke-miterlimit:10;}
	.st2{fill:#E2DCC8;}
</style>
<g>
	<g>
		<path class="st0" d="M200.3,27.2l-34.8,56.7l24.6,106.7L83.4,165.9l-58.1,35l58.1,34.6L190.1,211l-24.6,106.7c0,0,35,58.1,35,58.1
			l34.6-58.1L210.6,211l106.7,24.6l56.2-35.2l-56.2-34.4l-106.7,24.6l24.6-106.7L200.3,27.2z"/>
		<g>
			<g>
				<line class="st1" x1="200.1" y1="25.7" x2="165.5" y2="83.8"/>
				<line class="st1" x1="190.1" y1="190.5" x2="165.5" y2="83.8"/>
				<line class="st1" x1="200.1" y1="25.7" x2="235.1" y2="83.8"/>
				<line class="st1" x1="210.6" y1="190.5" x2="235.1" y2="83.8"/>
			</g>
			<g>
				<g>
					<line class="st1" x1="375.3" y1="200.5" x2="317.2" y2="165.9"/>
					<line class="st1" x1="210.6" y1="190.5" x2="317.2" y2="165.9"/>
					<line class="st1" x1="375.3" y1="200.5" x2="317.2" y2="235.5"/>
					<line class="st1" x1="210.6" y1="211" x2="317.2" y2="235.5"/>
				</g>
			</g>
			<g>
				<line class="st1" x1="200.6" y1="375.7" x2="235.1" y2="317.6"/>
				<line class="st1" x1="210.6" y1="211" x2="235.1" y2="317.6"/>
				<line class="st1" x1="200.6" y1="375.7" x2="165.5" y2="317.6"/>
				<line class="st1" x1="190.1" y1="211" x2="165.5" y2="317.6"/>
			</g>
			<g>
				<g>
					<line class="st1" x1="25.3" y1="201" x2="83.4" y2="235.5"/>
					<line class="st1" x1="190.1" y1="211" x2="83.4" y2="235.5"/>
					<line class="st1" x1="25.3" y1="201" x2="83.4" y2="165.9"/>
					<line class="st1" x1="190.1" y1="190.5" x2="83.4" y2="165.9"/>
				</g>
			</g>
		</g>
	</g>
	<path class="st2" d="M200.3,120.9c-44.1,0-79.8,35.7-79.8,79.8c0,44.1,35.7,79.8,79.8,79.8c44.1,0,79.8-35.7,79.8-79.8
		C280.1,156.7,244.4,120.9,200.3,120.9z M200.7,257.9c-31.6,0-57.2-25.6-57.2-57.2c0-31.6,25.6-57.2,57.2-57.2
		c31.6,0,57.2,25.6,57.2,57.2C257.8,232.3,232.2,257.9,200.7,257.9z"/>
</g>
</svg>
