<?xml version="1.0" encoding="utf-8"?>
<svg version="1.1" id="Layer_1" xmlns="http://www.w3.org/2000/svg" xmlns:xlink="http://www.w3.org/1999/xlink" x="0px" y="0px"
	 viewBox="0 0 400 400" enable-background="new 0 0 400 400" xml:space="preserve">
<g>
	<path fill="#E2DCC8" stroke="#E2DCC8" stroke-miterlimit="10" d="M199.1,26.4l-34.8,56.7l24.6,106.7L82.2,165.2l-58.1,35l58.1,34.6
		l106.7-24.6l-24.6,106.7c0,0,35,58.1,35,58.1l34.6-58.1l-24.6-106.7L316,234.8l56.2-35.2L316,165.2l-106.7,24.6l24.6-106.7
		L199.1,26.4z"/>
	<g>
		<g>
			
				<line fill="#FFFFFF" stroke="#E2DCC8" stroke-width="3" stroke-linecap="round" stroke-miterlimit="10" x1="198.8" y1="25" x2="164.3" y2="83.1"/>
			
				<line fill="#FFFFFF" stroke="#E2DCC8" stroke-width="3" stroke-linecap="round" stroke-miterlimit="10" x1="188.8" y1="189.8" x2="164.3" y2="83.1"/>
			
				<line fill="#FFFFFF" stroke="#E2DCC8" stroke-width="3" stroke-linecap="round" stroke-miterlimit="10" x1="198.8" y1="25" x2="233.9" y2="83.1"/>
			
				<line fill="#FFFFFF" stroke="#E2DCC8" stroke-width="3" stroke-linecap="round" stroke-miterlimit="10" x1="209.3" y1="189.8" x2="233.9" y2="83.1"/>
		</g>
		<g>
			<g>
				
					<line fill="#FFFFFF" stroke="#E2DCC8" stroke-width="3" stroke-linecap="round" stroke-miterlimit="10" x1="374.1" y1="199.8" x2="316" y2="165.2"/>
				
					<line fill="#FFFFFF" stroke="#E2DCC8" stroke-width="3" stroke-linecap="round" stroke-miterlimit="10" x1="209.3" y1="189.8" x2="316" y2="165.2"/>
				
					<line fill="#FFFFFF" stroke="#E2DCC8" stroke-width="3" stroke-linecap="round" stroke-miterlimit="10" x1="374.1" y1="199.8" x2="316" y2="234.8"/>
				
					<line fill="#FFFFFF" stroke="#E2DCC8" stroke-width="3" stroke-linecap="round" stroke-miterlimit="10" x1="209.3" y1="210.2" x2="316" y2="234.8"/>
			</g>
		</g>
		<g>
			
				<line fill="#FFFFFF" stroke="#E2DCC8" stroke-width="3" stroke-linecap="round" stroke-miterlimit="10" x1="199.3" y1="375" x2="233.9" y2="316.9"/>
			
				<line fill="#FFFFFF" stroke="#E2DCC8" stroke-width="3" stroke-linecap="round" stroke-miterlimit="10" x1="209.3" y1="210.2" x2="233.9" y2="316.9"/>
			
				<line fill="#FFFFFF" stroke="#E2DCC8" stroke-width="3" stroke-linecap="round" stroke-miterlimit="10" x1="199.3" y1="375" x2="164.3" y2="316.9"/>
			
				<line fill="#FFFFFF" stroke="#E2DCC8" stroke-width="3" stroke-linecap="round" stroke-miterlimit="10" x1="188.8" y1="210.2" x2="164.3" y2="316.9"/>
		</g>
		<g>
			<g>
				
					<line fill="#FFFFFF" stroke="#E2DCC8" stroke-width="3" stroke-linecap="round" stroke-miterlimit="10" x1="24.1" y1="200.2" x2="82.2" y2="234.8"/>
				
					<line fill="#FFFFFF" stroke="#E2DCC8" stroke-width="3" stroke-linecap="round" stroke-miterlimit="10" x1="188.8" y1="210.2" x2="82.2" y2="234.8"/>
				
					<line fill="#FFFFFF" stroke="#E2DCC8" stroke-width="3" stroke-linecap="round" stroke-miterlimit="10" x1="24.1" y1="200.2" x2="82.2" y2="165.2"/>
				
					<line fill="#FFFFFF" stroke="#E2DCC8" stroke-width="3" stroke-linecap="round" stroke-miterlimit="10" x1="188.8" y1="189.8" x2="82.2" y2="165.2"/>
			</g>
		</g>
	</g>
</g>
</svg>
